<?xml version="1.0" standalone="no"?>
<!DOCTYPE svg PUBLIC "-//W3C//DTD SVG 20010904//EN"
 "http://www.w3.org/TR/2001/REC-SVG-20010904/DTD/svg10.dtd">
<svg version="1.0" xmlns="http://www.w3.org/2000/svg"
 width="219.000000pt" height="219.000000pt" viewBox="0 0 219.000000 219.000000"
 preserveAspectRatio="xMidYMid meet">
<metadata>
Created by potrace 1.11, written by Peter Selinger 2001-2013
</metadata>
<g transform="translate(0.000000,219.000000) scale(0.100000,-0.100000)"
fill="#000000" stroke="none">
<path d="M0 1890 l0 -299 51 30 c28 16 77 47 108 68 83 57 282 166 489 269
101 51 211 107 245 126 34 19 98 49 142 67 44 17 82 33 84 35 2 2 -248 4 -557
4 l-562 0 0 -300z"/>
<path d="M1206 1985 c4 -145 3 -210 -5 -219 -7 -8 -32 -17 -57 -21 l-46 -6
-53 58 c-52 58 -53 58 -74 39 -20 -18 -21 -18 -30 8 -11 27 -25 33 -36 16 -12
-20 -43 -9 -69 24 -32 42 -32 46 -2 46 13 0 26 7 30 15 4 11 11 13 31 5 35
-13 118 -1 111 16 -3 8 0 14 6 14 9 0 9 3 0 12 -9 9 -26 9 -74 0 -35 -6 -79
-11 -99 -10 -25 1 -52 -9 -97 -36 -78 -47 -85 -59 -58 -103 11 -18 30 -48 41
-66 14 -21 30 -33 48 -35 31 -4 30 -2 17 -36 -11 -29 -35 -34 -44 -11 -5 14
-10 13 -34 -5 -56 -41 -160 -43 -203 -4 -9 8 -23 12 -32 9 -8 -4 -18 -1 -22 4
-11 19 -25 1 -19 -24 9 -36 -24 -50 -186 -79 -251 -45 -250 -45 -250 -67 0
-24 6 -24 166 1 161 25 182 25 186 3 3 -16 -28 -84 -42 -91 -31 -15 -33 -20
-16 -43 9 -13 16 -31 16 -41 0 -21 -5 -20 85 -23 39 -2 95 -10 125 -18 30 -9
68 -17 84 -19 16 -2 34 -10 39 -19 16 -26 -42 -91 -107 -122 -49 -23 -56 -31
-70 -75 -9 -27 -26 -58 -36 -67 -11 -10 -20 -23 -20 -28 0 -5 -12 -21 -26 -34
-17 -16 -24 -31 -21 -43 5 -20 -41 -75 -90 -107 -20 -14 -23 -13 -29 1 -7 19
-30 21 -38 4 -3 -9 -16 -1 -37 22 l-31 35 5 -30 c3 -16 9 -39 13 -49 5 -13 4
-17 -4 -12 -6 4 -35 0 -63 -8 -28 -9 -56 -13 -60 -10 -5 3 -8 0 -7 -8 2 -7 -3
-12 -10 -10 -8 1 -12 -16 -12 -63 0 -67 2 -69 48 -68 6 1 12 -2 12 -6 0 -4 17
-8 37 -9 21 -2 41 -9 45 -16 5 -10 19 -11 47 -6 21 4 67 3 102 -2 35 -4 68 -6
74 -4 5 2 -2 5 -17 5 -18 1 -26 5 -23 13 5 13 98 23 195 22 211 -3 280 -7 280
-15 0 -6 4 -8 9 -4 5 3 12 1 15 -4 9 -14 46 -1 47 18 0 9 3 11 5 5 3 -6 24 -9
47 -8 43 3 84 -17 73 -34 -10 -16 12 -62 29 -62 21 0 19 9 -7 29 -27 22 -16
41 24 41 22 0 29 -4 25 -14 -4 -11 3 -16 25 -18 32 -3 53 -28 24 -28 -9 0 -16
-4 -16 -9 0 -11 39 -26 58 -22 8 1 16 -7 19 -18 3 -12 9 -18 14 -15 13 8 34
-9 35 -28 1 -13 -6 -18 -30 -19 -23 -1 -25 -3 -8 -6 27 -5 28 -12 5 -29 -16
-12 -15 -13 12 -14 17 -1 39 -3 50 -6 54 -10 226 -14 220 -4 -3 5 2 10 12 10
17 1 17 1 -1 12 -11 6 -53 12 -94 14 -41 2 -77 6 -80 9 -11 11 9 16 89 23 83
8 84 8 37 15 -52 9 -65 27 -19 27 31 0 59 24 42 35 -31 19 -115 22 -136 5 -15
-12 -55 2 -55 19 0 12 87 24 102 14 18 -11 372 -5 403 7 37 14 32 34 -7 26
-22 -4 -28 -3 -19 3 11 7 8 10 -13 13 -25 3 -26 4 -12 24 14 19 19 20 75 11
35 -6 61 -15 61 -22 0 -8 26 -12 80 -14 44 -1 92 -6 106 -11 14 -6 36 -10 50
-10 13 0 24 -4 24 -10 0 -5 -17 -10 -37 -10 -33 0 -130 -37 -120 -46 2 -2 53
-6 115 -9 l112 -5 0 860 0 860 -495 0 -495 0 6 -205z m3 -312 c-1 -10 -4 -29
-8 -42 l-7 -25 -22 28 c-27 35 -27 43 -4 49 33 9 42 7 41 -10z m-403 -74 c0
-13 4 -32 8 -42 13 -28 0 -31 -32 -8 -23 16 -29 26 -24 44 10 43 47 48 48 6z
m818 15 c9 -3 13 -11 10 -16 -4 -6 1 -8 13 -4 10 3 28 0 39 -8 18 -14 18 -16
-20 -55 -23 -24 -43 -36 -46 -30 -4 6 -11 4 -20 -6 -7 -8 -23 -15 -36 -15 -13
0 -24 -5 -24 -11 0 -5 -4 -8 -9 -5 -11 7 30 128 49 143 17 14 23 15 44 7z
m-541 -141 c-7 -2 -19 -2 -25 0 -7 3 -2 5 12 5 14 0 19 -2 13 -5z m600 -13
c-3 -11 -1 -20 5 -20 6 0 13 8 15 18 4 15 5 15 6 0 1 -23 -17 -32 -35 -18 -11
10 -12 16 -3 26 16 19 18 18 12 -6z m-1097 -36 c49 -51 42 -94 -15 -94 -28 0
-131 44 -131 56 0 13 33 44 45 44 7 0 18 7 25 15 19 23 40 18 76 -21z m1260
17 c-4 -5 3 -7 13 -4 31 8 64 -15 57 -40 -2 -12 2 -31 10 -41 8 -11 14 -27 14
-37 0 -9 6 -22 14 -28 22 -18 39 -142 22 -159 -7 -6 -65 41 -65 53 -1 6 -15
27 -32 48 -17 20 -27 41 -24 47 4 6 -11 -1 -32 -16 -21 -14 -37 -32 -35 -40 4
-18 -22 -18 -38 1 -10 12 -7 19 19 41 l32 26 -38 35 c-21 19 -32 32 -25 28 13
-7 15 -1 6 32 -4 13 -10 20 -15 17 -5 -3 -9 0 -9 5 0 6 15 17 33 25 36 16 101
21 93 7z m-178 -29 c5 -34 -15 -53 -47 -45 -36 9 -58 43 -27 43 7 0 19 7 26
15 18 22 44 14 48 -13z m-398 -111 c30 -5 47 -9 38 -10 -22 -1 -24 -21 -3 -21
8 0 15 -4 15 -10 0 -5 -5 -10 -11 -10 -5 0 -7 -4 -4 -10 3 -5 16 -10 28 -10
12 0 29 -5 37 -10 16 -11 18 -11 -255 -9 -196 0 -196 4 -10 82 35 15 70 23 85
20 14 -2 50 -8 80 -12z m-590 -121 c-8 -5 -22 -10 -30 -10 -13 0 -13 1 0 10 8
5 22 10 30 10 13 0 13 -1 0 -10z m45 -30 c8 -13 -43 -106 -86 -155 -65 -76
-190 -195 -205 -195 -21 0 -29 27 -13 46 7 9 19 33 26 53 11 30 10 38 -1 47
-12 8 -11 15 9 40 13 17 27 43 31 57 8 33 48 67 78 67 12 0 42 11 66 24 49 25
85 32 95 16z m1255 -74 c-1 -6 -7 -29 -15 -51 -12 -34 -12 -41 0 -48 17 -9 20
-37 4 -37 -7 0 -9 -10 -4 -27 4 -16 11 -52 16 -81 4 -30 11 -63 15 -74 4 -14
2 -18 -5 -14 -6 4 -11 2 -11 -3 0 -6 -6 -11 -12 -11 -8 0 -30 53 -53 124 l-40
123 -64 12 c-35 7 -65 10 -68 8 -4 -5 84 -91 130 -127 15 -12 24 -26 21 -32
-4 -5 -24 7 -48 30 -53 51 -136 105 -136 89 0 -8 -4 -6 -10 3 -6 9 -6 18 0 24
6 6 10 18 10 27 0 27 12 29 71 14 73 -20 77 -19 75 13 -1 33 18 46 22 15 2
-13 8 -23 14 -23 6 0 8 10 4 24 -3 12 -3 26 1 29 10 11 83 4 83 -7z m-1066
-21 c31 -29 39 -30 69 -11 12 8 37 17 55 21 30 6 32 5 32 -22 0 -21 -8 -33
-30 -46 -16 -10 -30 -22 -30 -27 0 -12 29 -1 49 19 9 9 42 30 74 46 46 24 59
27 66 16 5 -7 9 -72 10 -145 l1 -131 -35 -1 c-19 0 -35 3 -35 8 0 4 5 8 12 8
9 0 9 3 0 12 -8 8 -15 8 -28 -3 -16 -13 -16 -12 -5 9 16 29 9 37 -18 23 -16
-9 -19 -18 -16 -46 3 -21 1 -35 -6 -35 -5 0 -7 5 -4 10 3 6 -3 10 -14 10 -25
0 -28 15 -4 24 14 6 15 9 4 15 -9 6 -23 -2 -42 -23 -26 -28 -30 -29 -42 -15
-9 12 -22 15 -47 11 -31 -4 -33 -3 -22 11 17 20 -4 29 -33 14 -11 -6 -47 -12
-80 -13 -33 -2 -88 -6 -122 -9 -61 -6 -103 4 -103 25 0 6 9 19 19 29 11 11 27
35 36 53 10 18 54 68 98 110 75 71 86 78 123 78 30 0 48 -7 68 -25z m796 -125
c0 -16 -91 -172 -97 -166 -3 2 9 33 25 68 16 35 32 73 36 86 7 22 36 31 36 12z
m-1300 -50 c0 -5 -5 -10 -11 -10 -5 0 -7 5 -4 10 3 6 8 10 11 10 2 0 4 -4 4
-10z m1595 -10 c3 -5 1 -10 -4 -10 -6 0 -11 5 -11 10 0 6 2 10 4 10 3 0 8 -4
11 -10z m-399 -147 c-10 -10 -19 5 -10 18 6 11 8 11 12 0 2 -7 1 -15 -2 -18z
m329 -33 c-3 -5 -10 -10 -16 -10 -5 0 -9 5 -9 10 0 6 7 10 16 10 8 0 12 -4 9
-10z m-1430 -30 c0 -10 -9 -14 -29 -13 -35 3 -45 11 -26 24 21 13 55 7 55 -11z
m35 0 c0 -5 -2 -10 -4 -10 -3 0 -8 5 -11 10 -3 6 -1 10 4 10 6 0 11 -4 11 -10z
m1350 0 c0 -5 -7 -10 -16 -10 -8 0 -12 5 -9 10 3 6 10 10 16 10 5 0 9 -4 9
-10z m-410 -40 c0 -5 -2 -10 -4 -10 -3 0 -8 5 -11 10 -3 6 -1 10 4 10 6 0 11
-4 11 -10z m687 -86 c-3 -3 -12 -4 -19 -1 -8 3 -5 6 6 6 11 1 17 -2 13 -5z"/>
<path d="M1581 1582 c-17 -31 -13 -40 5 -14 9 13 14 26 11 29 -3 2 -10 -4 -16
-15z"/>
<path d="M1790 1371 c0 -5 -10 -13 -21 -16 -16 -6 -18 -9 -8 -15 7 -5 17 -6
21 -3 5 2 15 0 23 -7 11 -9 16 -7 25 11 10 17 9 23 -1 30 -18 12 -39 11 -39 0z"/>
<path d="M1600 1390 c0 -5 7 -10 16 -10 8 0 12 5 9 10 -3 6 -10 10 -16 10 -5
0 -9 -4 -9 -10z"/>
<path d="M90 1100 c-9 -6 -10 -10 -3 -10 6 0 15 5 18 10 8 12 4 12 -15 0z"/>
<path d="M6 1042 c-3 -6 3 -12 15 -15 12 -3 19 -1 16 6 -5 15 -24 20 -31 9z"/>
<path d="M287 1033 c-12 -11 -7 -19 13 -20 11 -1 20 4 20 13 0 14 -21 19 -33
7z"/>
<path d="M510 573 l24 -17 -24 -7 c-24 -7 -24 -7 5 -8 17 -1 47 -8 67 -15 34
-12 36 -12 25 5 -7 12 -24 19 -42 19 -21 0 -26 3 -16 9 11 7 10 11 -7 20 -11
6 -29 11 -39 11 -14 0 -13 -3 7 -17z"/>
<path d="M1790 580 c-13 -9 -13 -10 0 -10 8 0 22 5 30 10 13 9 13 10 0 10 -8
0 -22 -5 -30 -10z"/>
<path d="M406 535 c4 -8 7 -15 9 -15 2 0 5 7 9 15 3 9 0 15 -9 15 -9 0 -12 -6
-9 -15z"/>
<path d="M858 543 c7 -3 16 -2 19 1 4 3 -2 6 -13 5 -11 0 -14 -3 -6 -6z"/>
<path d="M1020 546 c0 -2 7 -7 16 -10 8 -3 12 -2 9 4 -6 10 -25 14 -25 6z"/>
<path d="M343 533 c9 -2 25 -2 35 0 9 3 1 5 -18 5 -19 0 -27 -2 -17 -5z"/>
<path d="M467 510 c7 -25 34 -26 64 0 l24 19 -47 1 c-41 0 -46 -2 -41 -20z"/>
<path d="M360 490 l-23 -20 24 -19 c21 -17 24 -18 28 -3 2 9 10 26 18 39 14
21 14 23 -4 23 -11 0 -30 -9 -43 -20z"/>
<path d="M1474 491 c6 -10 85 -31 113 -31 12 1 6 7 -17 20 -35 19 -106 28 -96
11z"/>
<path d="M0 228 l0 -228 1095 0 1095 0 0 124 0 123 -112 7 c-250 15 -291 17
-503 23 -161 4 -224 9 -235 19 -11 9 -64 15 -178 18 -89 3 -165 7 -170 9 -4 3
-124 17 -267 32 -143 15 -262 29 -264 31 -2 2 4 13 14 24 28 31 11 34 -35 5
-27 -17 -46 -23 -53 -17 -7 5 -52 12 -102 16 -49 4 -106 11 -125 16 -20 5 -64
14 -98 18 l-62 9 0 -229z"/>
<path d="M594 445 c-18 -14 -18 -14 9 -15 15 0 27 4 27 9 0 18 -17 20 -36 6z"/>
<path d="M1921 449 c-48 -15 -31 -23 52 -24 39 -1 57 0 39 3 -18 2 -36 10 -39
18 -6 16 -6 16 -52 3z"/>
<path d="M930 409 c-22 -4 -27 -7 -12 -8 12 0 22 -5 22 -9 0 -5 -10 -14 -22
-21 -23 -11 -23 -11 2 -5 14 4 43 8 65 9 47 2 107 23 100 35 -6 10 -102 9
-155 -1z"/>
<path d="M807 403 c-2 -4 -1 -17 3 -27 6 -19 7 -19 14 -1 7 19 -8 44 -17 28z"/>
<path d="M1593 373 c9 -2 25 -2 35 0 9 3 1 5 -18 5 -19 0 -27 -2 -17 -5z"/>
<path d="M1968 373 c-51 -8 -29 -21 31 -20 56 2 62 9 16 19 -11 3 -32 3 -47 1z"/>
<path d="M2090 310 c0 -5 4 -10 9 -10 6 0 13 5 16 10 3 6 -1 10 -9 10 -9 0
-16 -4 -16 -10z"/>
</g>
</svg>
